<?xml version="1.0" encoding="utf-8"?>
<!-- Generator: Adobe Illustrator 22.0.0, SVG Export Plug-In . SVG Version: 6.00 Build 0)  -->
<svg fill="#fff" version="1.1" id="Ebene_1" xmlns="http://www.w3.org/2000/svg" xmlns:xlink="http://www.w3.org/1999/xlink" x="0px" y="0px"
	 viewBox="0 0 969.2 109.5" style="enable-background:new 0 0 969.2 109.5;" xml:space="preserve">
<g>
	<polygon points="357.5,0 324.7,0 324.7,109.5 357.5,109.5 357.5,33 445.1,33 445.1,54.7 417.8,54.7 439.7,109.5 472.5,109.5
		450.6,54.7 478,54.7 478,0 445.1,0 	"/>
	<polygon points="523.8,0 490.9,0 490.9,109.5 523.8,109.5 534.7,109.5 644.3,87.5 644.3,54.7 534.7,76.7 523.8,76.7 523.8,32.9
		534.7,32.9 644.3,54.7 644.3,21.8 534.7,0 	"/>
	<polygon points="161,109.5 193.9,109.5 237.7,0 204.8,0 	"/>
	<polygon points="237.7,0 281.5,109.5 314.3,109.5 270.5,0 	"/>
	<polygon points="815.9,109.5 848.7,109.5 892.5,0 859.7,0 	"/>
	<polygon points="925.4,0 892.5,0 936.3,109.5 969.2,109.5 	"/>
	<polygon points="714,0 653.7,0 653.7,32.5 714,32.5 714,76.5 653.7,76.5 653.7,109.5 714,109.5 746.8,109.5 807.1,109.5
		807.1,76.5 746.8,76.5 746.8,32.5 807.1,32.5 807.1,0 746.8,0 	"/>
	<polygon points="32.9,0 0,0 0,109.5 32.9,109.5 32.9,54.8 32.9,54.8 	"/>
	<polygon points="106.8,0 32.9,54.8 32.9,54.8 32.9,54.8 32.9,54.8 32.9,54.8 109.5,109.5 153.3,109.5 79.4,54.8 153.3,0 	"/>
</g>
</svg>
